<svg xmlns="http://www.w3.org/2000/svg" width="19" height="16" viewBox="0 0 19 16" fill="none">
  <path d="M11.1317 5.43888L11.0051 6.04167H11.621H16.6243C16.9117 6.04167 17.1872 6.1558 17.3904 6.35897C17.5935 6.56213 17.7077 6.83768 17.7077 7.125V8.70833C17.7077 8.84476 17.6824 8.97105 17.6339 9.09727L15.2464 14.6706L15.2464 14.6706L15.2445 14.6752C15.0829 15.0629 14.7003 15.3333 14.2493 15.3333H7.12435C6.83703 15.3333 6.56148 15.2192 6.35832 15.016C6.15515 14.8129 6.04102 14.5373 6.04102 14.25V6.33333C6.04102 6.03519 6.15915 5.76522 6.36165 5.56272L11.2189 0.705436L11.7029 1.1848C11.7031 1.18504 11.7034 1.18528 11.7036 1.18552C11.8273 1.30958 11.9048 1.48451 11.9048 1.67042C11.9048 1.72778 11.8995 1.78093 11.8911 1.82369L11.1317 5.43888ZM3.45768 6.83333V15.3333H1.29102V6.83333H3.45768Z" fill="white" stroke="#555555"/>
</svg>