<svg width="26" height="26" viewBox="0 0 26 26" fill="none" xmlns="http://www.w3.org/2000/svg">
<g id="&#230;&#154;&#130;&#229;&#129;&#156;">
<path id="Ellipse 19" d="M19.5 1.74167C17.0217 0.310797 14.1404 -0.262316 11.3032 0.111217C8.4659 0.48475 5.83117 1.78405 3.80761 3.80761C1.78405 5.83117 0.484749 8.4659 0.111217 11.3032C-0.262316 14.1404 0.310798 17.0217 1.74167 19.5C3.17254 21.9783 5.38121 23.9153 8.02512 25.0104C10.669 26.1056 13.6004 26.2977 16.3646 25.557C19.1289 24.8164 21.5715 23.1843 23.3136 20.9139C25.0557 18.6435 26 15.8617 26 13H24.44C24.44 15.5183 23.609 17.9663 22.076 19.9642C20.5429 21.9622 18.3934 23.3984 15.9609 24.0502C13.5284 24.702 10.9487 24.5329 8.6221 23.5692C6.29546 22.6055 4.35184 20.9009 3.09267 18.72C1.8335 16.5391 1.32916 14.0036 1.65787 11.5068C1.98658 9.00999 3.12997 6.69143 4.9107 4.9107C6.69143 3.12997 9.00999 1.98658 11.5068 1.65787C14.0036 1.32916 16.5391 1.8335 18.72 3.09267L19.5 1.74167Z" fill="#ECEBF1"/>
<path id="Ellipse 20" d="M24.618 18.8329C26.1188 15.8435 26.4096 12.3907 25.4299 9.19237C24.4501 5.99407 22.2753 3.2965 19.3576 1.66065L18.5947 3.02137C21.1623 4.46092 23.0761 6.83478 23.9383 9.64928C24.8005 12.4638 24.5446 15.5023 23.2238 18.133L24.618 18.8329Z" fill="black"/>
<rect id="Rectangle 16" x="8.84" y="8.84" width="2.86" height="8.58" fill="#282424"/>
<rect id="Rectangle 17" x="14.56" y="8.84" width="2.86" height="8.58" fill="#282424"/>
</g>
</svg>
